<svg width="40" height="17" viewBox="0 0 40 17" fill="none" xmlns="http://www.w3.org/2000/svg">
<path id="XMLID_34_" d="M7.16467 2.07569C6.7051 2.6195 5.96981 3.04842 5.23451 2.98715C5.1426 2.25185 5.50259 1.4706 5.92385 0.988057C6.38341 0.428924 7.18764 0.0306374 7.83869 0C7.91528 0.765936 7.61657 1.51655 7.16467 2.07569ZM7.83103 3.13268C6.76638 3.0714 5.85492 3.73777 5.3494 3.73777C4.83622 3.73777 4.06263 3.16331 3.2201 3.17863C2.12481 3.19395 1.10611 3.81436 0.546981 4.80242C-0.601922 6.77853 0.248266 9.7044 1.35887 11.3129C1.90269 12.1094 2.55373 12.9826 3.41158 12.952C4.22347 12.9213 4.54517 12.4235 5.52556 12.4235C6.51362 12.4235 6.79702 12.952 7.65486 12.9367C8.54335 12.9213 9.10248 12.1401 9.6463 11.3435C10.2667 10.4397 10.5195 9.55888 10.5348 9.51292C10.5195 9.4976 8.81909 8.84656 8.80377 6.88576C8.78845 5.24666 10.1442 4.4654 10.2054 4.41945C9.4395 3.28586 8.24464 3.16331 7.83103 3.13268ZM13.9815 0.911463V12.8524H15.8351V8.76996H18.4009C20.7447 8.76996 22.3915 7.1615 22.3915 4.83305C22.3915 2.50461 20.7753 0.911463 18.4622 0.911463H13.9815ZM15.8351 2.47397H17.972C19.5805 2.47397 20.4996 3.33182 20.4996 4.84071C20.4996 6.34961 19.5805 7.21511 17.9644 7.21511H15.8351V2.47397ZM25.7769 12.9443C26.9411 12.9443 28.0211 12.3545 28.5113 11.4201H28.5496V12.8524H30.2653V6.90874C30.2653 5.18538 28.8866 4.07478 26.765 4.07478C24.7965 4.07478 23.3412 5.2007 23.2876 6.74789H24.9574C25.0952 6.0126 25.7769 5.53006 26.7113 5.53006C27.8449 5.53006 28.4807 6.05855 28.4807 7.03129V7.68999L26.1675 7.82786C24.0153 7.95807 22.851 8.8389 22.851 10.3708C22.851 11.918 24.0535 12.9443 25.7769 12.9443ZM26.2748 11.5273C25.2867 11.5273 24.6586 11.0525 24.6586 10.3248C24.6586 9.5742 25.2637 9.13761 26.4203 9.06868L28.4807 8.93847V9.61249C28.4807 10.7308 27.5309 11.5273 26.2748 11.5273ZM32.5554 16.1C34.363 16.1 35.2132 15.4106 35.9562 13.3196L39.2114 4.18967H37.3272L35.1443 11.2439H35.106L32.9231 4.18967H30.9853L34.1256 12.883L33.9571 13.4115C33.6737 14.3077 33.2141 14.6524 32.3946 14.6524C32.2491 14.6524 31.9657 14.637 31.8508 14.6217V16.054C31.958 16.0847 32.4176 16.1 32.5554 16.1Z" fill="black"/>
</svg>
